<svg version="1.0" xmlns="http://www.w3.org/2000/svg" width="800.000000" height="800.000000" viewBox="0 0 800.000000 800.000000" preserveAspectRatio="xMidYMid meet">
  <metadata>
    <rdf:RDF xmlns:rdf="http://www.w3.org/1999/02/22-rdf-syntax-ns#" xmlns:rdfs="http://www.w3.org/2000/01/rdf-schema#" xmlns:dc="http://purl.org/dc/elements/1.1/">
      <rdf:Description dc:format="image/svg+xml" dc:Label="1" dc:ContentProducer="001191330110MACRLGPT8B00000" dc:ProduceID="307520236" dc:ReservedCode1="bJADvfCaJNOfxOecP5vBMcFECf/B0gesUvq8jZ8zUhs=" dc:ContentPropagator="001191330110MACRLGPT8B00000" dc:PropagateID="307520236" dc:ReservedCode2="bJADvfCaJNOfxOecP5vBMcFECf/B0gesUvq8jZ8zUhs="/>
    </rdf:RDF>
  </metadata>
  <g transform="translate(0.000000,800.000000) scale(0.100000,-0.100000)" fill="#000000" stroke="none">
    <path d="M1885 6136 c-18 -28 -11 -50 30 -96 25 -28 145 -205 145 -214 0 -4 23 -43 50 -87 28 -45 60 -103 71 -130 24 -54 54 -70 126 -67 45 1 89 -26 157 -102 43 -48 47 -92 15 -150 l-22 -39 27 -31 c39 -47 42 -73 15 -127 -33 -65 -66 -86 -142 -91 -54 -3 -67 0 -99 22 l-38 25 -6 -24 c-5 -21 32 -65 278 -332 157 -169 367 -398 468 -508 101 -110 238 -258 305 -330 251 -268 355 -387 361 -411 22 -87 -38 -174 -119 -174 -23 0 -57 8 -74 18 -17 9 -149 124 -291 254 -143 130 -311 281 -374 335 -62 54 -144 127 -183 163 -117 108 -144 130 -89 70 28 -30 142 -154 254 -275 230 -248 408 -439 621 -665 80 -85 169 -180 197 -210 83 -87 91 -158 24 -210 -28 -23 -91 -27 -125 -8 -19 9 -213 187 -502 458 -64 60 -66 61 -25 14 25 -28 114 -127 199 -220 84 -93 229 -252 321 -354 92 -102 201 -217 243 -256 179 -168 411 -288 660 -341 64 -14 126 -18 282 -17 190 1 206 2 315 31 267 70 468 189 652 382 138 145 239 313 303 504 110 329 83 722 -70 1028 -99 195 -224 337 -570 644 -99 88 -245 218 -325 290 -80 71 -127 109 -105 85 22 -25 74 -83 117 -130 296 -329 382 -429 395 -459 25 -59 -4 -125 -68 -151 -58 -24 -88 -8 -231 126 -303 285 -1078 999 -1143 1054 l-40 34 31 -35 c97 -108 462 -509 667 -733 131 -143 245 -273 253 -289 36 -69 7 -166 -59 -200 -33 -17 -43 -18 -86 -7 -27 6 -63 22 -80 34 -17 12 -158 144 -313 292 -305 291 -947 898 -1148 1084 -68 63 -120 106 -116 95 24 -60 28 -78 22 -108 -16 -86 -96 -145 -181 -133 -38 6 -46 4 -73 -24 -36 -35 -92 -41 -148 -14 -52 25 -152 137 -160 180 -8 44 8 81 41 94 14 5 25 13 25 18 0 5 -21 24 -47 42 -27 19 -113 89 -193 155 -160 134 -216 175 -241 175 -9 0 -22 7 -29 15 -7 8 -16 13 -20 10 -4 -2 -22 7 -40 20 -43 32 -75 32 -95 1z"/>
  </g>
</svg>
